<?xml version="1.0" encoding="UTF-8" standalone="no"?>
<svg
   id="svg2"
   height="256pt"
   width="256pt"
   version="1.1"
   viewBox="0 0 256 256"
   sodipodi:docname="1518275148.svg"
   inkscape:version="1.1.1 (3bf5ae0d25, 2021-09-20)"
   xmlns:inkscape="http://www.inkscape.org/namespaces/inkscape"
   xmlns:sodipodi="http://sodipodi.sourceforge.net/DTD/sodipodi-0.dtd"
   xmlns="http://www.w3.org/2000/svg"
   xmlns:svg="http://www.w3.org/2000/svg">
  <defs
     id="defs13" />
  <sodipodi:namedview
     id="namedview11"
     pagecolor="#505050"
     bordercolor="#eeeeee"
     borderopacity="1"
     inkscape:pageshadow="0"
     inkscape:pageopacity="0"
     inkscape:pagecheckerboard="0"
     inkscape:document-units="pt"
     showgrid="false"
     width="512pt"
     inkscape:zoom="0.53383782"
     inkscape:cx="185.44958"
     inkscape:cy="373.709"
     inkscape:window-width="951"
     inkscape:window-height="1009"
     inkscape:window-x="0"
     inkscape:window-y="0"
     inkscape:window-maximized="1"
     inkscape:current-layer="svg2" />
  <g
     id="g4175">
    <g
       id="g5">
      <path
         id="path4164"
         d="m 156.91,2.5938 c -1.6473,-0.01457 -3.3428,0.15344 -5.0891,0.53594 -13.25,16.16 -30.89,29.06 -44.03,45.65 -4.28,6.32 -11.001,10.381 -15.391,16.611 -7.86,7.84 -12.821,17.929 -16.741,28.169 -2.84,6.35 -9.4691,9.2209 -13.589,14.511 -16.18,14.04 -33.971,28.09 -42.561,48.42 -4.79,10.36 -17.95,17.099 -16.33,29.889 2.05,4.71 8.2597,2.1606 12.08,2.2406 5.47,-0.55 6.5903,-7.2703 10.97,-9.4703 4.77,0.7 9.0303,4.5103 14.12,2.3703 11.12,-2.32 19.61,-10.621 29.53,-15.641 10.9,-5.58 21.731,-11.309 32.091,-17.859 2.91,2.09 4.68,5.5997 8.2,6.8797 2.76,1.74 7.9497,1.5594 8.2797,5.7594 4.69,24.46 7.1106,49.311 12.241,73.691 1.41,5.32 -4.8809,8.5406 -4.6109,13.741 -1.83,5.77 4.3,9.1197 9.05,8.9297 8.74,-0.27 19.591,-2.8206 23.611,-11.541 0.81,-4.86 -2.6609,-9.2703 -6.4609,-11.87 -2.51,-1.44 -7.5594,2.8006 -6.2594,-3.7594 -4.83,-23.95 -13.261,-48.3 -8.9109,-72.92 5.62,0.29 9.3312,5.3909 13.181,8.8109 14.2,13.2 25.689,29.039 40.289,41.819 0.51,4.58 -2.0497,9.8312 0.67031,14.231 7.32,2.29 17.23,0.98907 21.65,-5.9109 4.25,-6.66 6.0497,-18.56 -2.3203,-22.62 -2.73,0.18 -5.7703,2.4909 -8.2703,0.51093 -14.34,-9.55 -23.71,-24.411 -36.45,-35.641 -4.62,-7.48 -14.129,-12.43 -13.619,-22.25 0,-3.43 -4.1809,-7.8291 -0.96093,-10.539 21.09,-9.84 42,-20.881 59.38,-36.591 5.18,-4.31 4.6309,-12.001 4.2609,-17.991 -3.81,-19.86 -16.34,-36.48 -29.33,-51.35 -7.9625,-7.63 -17.15,-16.714 -28.681,-16.816 z"
         fill="#95bc6c" />
      <path
         id="path4"
         d="m 156.91,2.5938 c -1.6473,-0.01457 -3.3428,0.15344 -5.0891,0.53594 -13.25,16.16 -30.89,29.06 -44.03,45.65 -4.28,6.32 -11.001,10.381 -15.391,16.611 -7.86,7.84 -12.821,17.929 -16.741,28.169 -2.84,6.35 -9.4691,9.2209 -13.589,14.511 -16.18,14.04 -33.971,28.09 -42.561,48.42 -4.79,10.36 -17.95,17.099 -16.33,29.889 2.05,4.71 8.2597,2.1606 12.08,2.2406 11.818,-6.2432 18.422,-4.5638 25.091,-7.1 11.12,-2.32 19.61,-10.621 29.53,-15.641 10.9,-5.58 21.731,-11.309 32.091,-17.859 2.91,2.09 4.68,5.5997 8.2,6.8797 2.76,1.74 7.9497,1.5594 8.2797,5.7594 4.69,24.46 7.1106,49.311 12.241,73.691 1.41,5.32 -4.8809,8.5406 -4.6109,13.741 -1.83,5.77 4.3,9.1197 9.05,8.9297 8.74,-0.27 19.591,-2.8206 23.611,-11.541 0.81,-4.86 -2.6609,-9.2703 -6.4609,-11.87 -2.51,-1.44 -7.5594,2.8006 -6.2594,-3.7594 -4.83,-23.95 -13.261,-48.3 -8.9109,-72.92 5.62,0.29 9.3312,5.3909 13.181,8.8109 14.2,13.2 25.689,29.039 40.289,41.819 0.51,4.58 -2.0497,9.8312 0.67031,14.231 7.32,2.29 17.23,0.98907 21.65,-5.9109 4.25,-6.66 6.0497,-18.56 -2.3203,-22.62 -2.73,0.18 -5.7703,2.4909 -8.2703,0.51093 -14.34,-9.55 -23.71,-24.411 -36.45,-35.641 -4.62,-7.48 -14.129,-12.43 -13.619,-22.25 0,-3.43 -4.1809,-7.8291 -0.96093,-10.539 21.09,-9.84 42,-20.881 59.38,-36.591 5.18,-4.31 4.6309,-12.001 4.2609,-17.991 -3.81,-19.86 -16.34,-36.48 -29.33,-51.35 -7.9625,-7.63 -17.15,-16.714 -28.681,-16.816 z m 2.3703,8.7531 c 1.1139,-0.02093 2.2725,0.23094 3.4406,0.82344 5.31,3.1 11.13,6.52 14.38,11.8 9.09,9.31 17.3,19.65 22.82,31.52 l 0.58907,-0.6 c 3.78,7.49 7.5412,15.909 6.3312,24.489 -1.63,2.811 -5.04,5.421 -8.44,4.271 -16.23,-5.01 -28.21,-18 -37.62,-31.48 -5.28,-9.46 -12.359,-19.221 -10.589,-30.711 0.27625,-4.81 4.2623,-10.022 9.0891,-10.112 z m -1.375,2.8578 c -1.4438,-0.06217 -2.8141,0.53563 -3.8453,2.2156 -3.2,12.1 2.3503,24.55 8.9703,34.52 8.58,10.11 16.181,22.339 29.061,27.289 4.27,1.79 12.8,1.2309 9.75,-5.9391 -6.91,-1.99 -14.15,-4.611 -18.94,-10.241 -8.29,-9.04 -15.79,-19.05 -20.65,-30.38 -2.14,-4.54 0.40938,-9.4303 2.2594,-13.62 -1.5875,-1.8062 -4.1984,-3.7417 -6.6047,-3.8453 z m -16.555,13.675 c 4.06,17.63 13.07,34.97 27.78,46.02 6.19,5.64 12.661,10.94 20.041,15.13 2.96,-0.13 4.6203,2.1109 2.0703,4.2609 -11.79,7.68 -23.93,14.97 -36.27,21.7 -2.75,1.74 -5.47,3.8397 -8.7,4.5797 -1.32,-1.69 -3.1197,-3.5303 -5.7297,-2.3203 -2.7,1.08 -1.6712,4.3106 -1.8312,6.5406 -4.87,2.83 -9.9191,5.7591 -15.439,7.0891 -2.4,-1.05 -2.4497,-4.7297 -5.0797,-5.3297 -8.15,-0.82 -15.97,-5.59 -19.88,-12.86 -5.88,-5.96 -9.34,-14.08 -12.28,-21.79 1.52,-9.37 9.77,-15.53 15.6,-22.3 11.02,-15.63 27.26,-26.38 39.73,-40.72 z m -60.72,72.39 c 4.44,7.81 7.5291,17.7 15.489,22.65 4.15,3.28 7.84,7.1091 13,9.0391 -19.38,15.63 -42.03,26.561 -63.85,38.331 -2.83,0.79 -7.3494,4.6991 -9.3094,0.88907 -3.76,-1.87 -7.66,-5.1003 -8.8,-9.3203 2.29,-12.03 12.241,-20.159 19.141,-29.589 12.49,-9.57 22.88,-21.29 34.33,-32 z m 61.142,31.113 c 1.4526,0.0673 2.0188,3.8172 2.6281,5.3078 2.51,4.78 -1.3712,9.8194 -5.9812,10.859 -8.25,1.97 -18.109,5.1494 -25.519,-0.64062 -7.93,-2.98 1.2797,-12.039 6.3297,-9.0891 8,3.17 16.469,-0.88 22.239,-6.4 0.105,-0.03 0.20628,-0.042 0.30312,-0.0375 z m 48.058,63.737 c 5.56,3.21 10.98,7.1394 17.72,7.1594 1.03,5.28 -2.3109,13.051 -8.9609,10.861 1.83,-7.61 -6.3994,-11.65 -8.7594,-18.02 z m -51.911,40.939 c 2.53,3.75 6.3803,5.4712 10.72,6.2812 1.21,5.67 -10.459,10.649 -13.459,5.3688 0.32,-3.97 1.7991,-7.79 2.7391,-11.65 z"
         fill="#1c1e1a" />
      <path
         id="path6"
         d="m 159.28,11.347 c -4.8268,0.09071 -8.8128,5.3025 -9.0891,10.112 -1.77,11.49 5.3091,21.251 10.589,30.711 9.41,13.48 21.39,26.47 37.62,31.48 3.4,1.15 6.8106,-1.4603 8.4406,-4.2703 1.21,-8.58 -2.5512,-16.999 -6.3312,-24.489 l -0.58907,0.6 c -0.12,5.66 0.84031,11.25 1.9203,16.8 3.05,7.17 -5.48,7.7291 -9.75,5.9391 -12.88,-4.95 -20.481,-17.179 -29.061,-27.289 -6.62,-9.97 -12.17,-22.42 -8.9703,-34.52 2.75,-4.48 7.91,-1.2603 10.45,1.6297 4.98,-0.24 8.8106,3.1903 12.591,5.9203 -3.25,-5.28 -9.0697,-8.7 -14.38,-11.8 -1.1681,-0.5925 -2.3268,-0.84437 -3.4406,-0.82344 z M 141.35,27.88 c -12.47,14.34 -28.71,25.09 -39.73,40.72 -5.83,6.77 -14.08,12.93 -15.6,22.3 2.94,7.71 6.3997,15.831 12.28,21.791 2.95,2.38 5.7606,4.92 8.7406,7.25 20.91,-14.54 41.87,-29.081 63.75,-42.131 -0.15,-1.45 -0.98093,-2.6694 -1.6609,-3.9094 -14.71,-11.051 -23.72,-28.391 -27.78,-46.021 z m 47.82,61.15 c -4.97,6.13 -13.011,8.2609 -19.011,13.111 -5.5,4.14 -11.41,7.6897 -17,11.68 0.45,0.29 1.3509,0.87031 1.8109,1.1703 12.34,-6.73 24.48,-14.02 36.27,-21.7 2.55,-2.15 0.88969,-4.3909 -2.0703,-4.2609 z M 80.62,100.271 c -11.45,10.71 -21.84,22.43 -34.33,32 -6.9,9.43 -16.851,17.559 -19.141,29.589 1.14,4.22 5.04,7.4503 8.8,9.3203 8.01,-5.64 14.999,-12.61 23.109,-18.12 12.421,-8.99 25.652,-16.85 37.992,-25.91 1.92,-1.23 -0.41062,-2.8497 -0.94062,-4.2297 -7.96,-4.95 -11.049,-14.84 -15.489,-22.65 z"
         fill="#ccfd6a" />
    </g>
    <path
       id="path10"
       d="m 164.51,18.05 c 4.98,-0.24 8.81,3.19 12.59,5.92 9.09,9.31 17.3,19.65 22.82,31.52 -0.12,5.66 0.84,11.25 1.92,16.8 C 194.93,70.3 187.69,67.68 182.9,62.05 174.61,53.01 167.11,43 162.25,31.67 c -2.14,-4.54 0.41,-9.43 2.26,-13.62 z"
       fill="#9ff8f3" />
    <path
       id="path22"
       d="m 141.76,131.38 c -0.0968,-0.005 -0.19812,0.007 -0.30312,0.0375 -5.77,5.52 -14.239,9.57 -22.239,6.4 -5.05,-2.95 -14.26,6.1091 -6.3297,9.0891 7.41,5.79 17.269,2.6106 25.519,0.64062 4.61,-1.04 8.4912,-6.0794 5.9812,-10.859 -0.60937,-1.4906 -1.1756,-5.2405 -2.6281,-5.3078 z m 48.058,63.737 c 2.36,6.37 10.589,10.41 8.7594,18.02 6.65,2.19 9.9909,-5.5809 8.9609,-10.861 -6.74,-0.02 -12.16,-3.9494 -17.72,-7.1594 z m -51.911,40.939 c -0.94,3.86 -2.4191,7.68 -2.7391,11.65 3,5.28 14.669,0.30124 13.459,-5.3688 -4.34,-0.81 -8.1903,-2.5312 -10.72,-6.2812 z"
       fill="#f2f3f1" />
  </g>
</svg>
